C:\Users\r0593348\3dpredictsim\Results\Batchsim_tmt_linear_v2\Pog_s1_tmt_aCst_d05_k250_ig24_act_GRF.mot
nRows=27
nColumns=19

name C:\Users\r0593348\3dpredictsim\Results\Batchsim_tmt_linear_v2\Pog_s1_tmt_aCst_d05_k250_ig24_act_GRF.mot
datacolumns 19
datarows 27
range 0.0000000000 0.3479070444
endheader
time 	ground_force_vx	ground_force_vy	ground_force_vz	ground_force_px	ground_force_py	ground_force_pz	1_ground_force_vx	1_ground_force_vy	1_ground_force_vz	1_ground_force_px	1_ground_force_py	1_ground_force_pz	ground_torque_x	ground_torque_y	ground_torque_z	1_ground_torque_x	1_ground_torque_y	1_ground_torque_z
        0.0000000000	      -74.0411844691	       64.2347341435	       16.6959245072	        0.2274645612	        0.0000000000	        0.0488528040	       41.7196457079	      246.0985936389	       -7.2972011520	       -0.3628549204	        0.0000000000	       -0.0436248651	        0.0000000000	        0.0000000000	        0.0000000000	        0.0000000000	        0.0000000000	        0.0000000000	
        0.0133810402	     -129.1959384736	      225.2468958296	       43.9209706319	        0.2341716946	        0.0000000000	        0.0476565621	       28.2047676039	      218.9138925870	      -18.3178153518	       -0.3607339666	        0.0000000000	       -0.0435129450	        0.0000000000	        0.0000000000	        0.0000000000	        0.0000000000	        0.0000000000	        0.0000000000	
        0.0267620803	     -105.5734393123	      506.1246293012	        7.4119481708	        0.2390042153	        0.0000000000	        0.0469262702	       28.3650389204	      180.2351008903	      -17.2036767620	       -0.3601828399	        0.0000000000	       -0.0435054744	        0.0000000000	        0.0000000000	        0.0000000000	        0.0000000000	        0.0000000000	        0.0000000000	
        0.0401431205	     -155.7402957594	      798.8992490804	       -8.8992948080	        0.2501746421	        0.0000000000	        0.0494785188	       22.9392523589	      130.3951110173	      -15.9303352986	       -0.3597311617	        0.0000000000	       -0.0436345557	        0.0000000000	        0.0000000000	        0.0000000000	        0.0000000000	        0.0000000000	        0.0000000000	
        0.0535241607	     -207.4037467229	      966.6199814474	      -11.3738367848	        0.2607649472	        0.0000000000	        0.0522360705	        7.2000078782	       67.0566587635	      -17.8573290506	       -0.3599252888	        0.0000000000	       -0.0447157875	        0.0000000000	        0.0000000000	        0.0000000000	        0.0000000000	        0.0000000000	        0.0000000000	
        0.0669052008	     -201.9295167180	      958.7857084706	      -12.3589945717	        0.2675003901	        0.0000000000	        0.0537440970	      -11.4470939342	       14.2977615836	       -5.8741069038	       -0.3653665394	        0.0000000000	       -0.0447803145	        0.0000000000	        0.0000000000	        0.0000000000	        0.0000000000	        0.0000000000	        0.0000000000	
        0.0802862410	     -178.4385167738	      880.6976196263	      -11.3157066534	        0.2724536926	        0.0000000000	        0.0547015199	      -15.3580825349	       12.1186746750	        0.2964116244	       -0.3567466943	        0.0000000000	       -0.0415731455	        0.0000000000	        0.0000000000	        0.0000000000	        0.0000000000	        0.0000000000	        0.0000000000	
        0.0936672812	     -153.7082357537	      810.0158624994	      -11.1866572907	        0.2771124670	        0.0000000000	        0.0553369767	      -19.5919909938	       13.3187321216	        0.5371544806	       -0.3385071145	        0.0000000000	       -0.0426114171	        0.0000000000	        0.0000000000	        0.0000000000	        0.0000000000	        0.0000000000	        0.0000000000	
        0.1070483214	     -137.1129973699	      767.4870474464	      -12.3316469831	        0.2827911351	        0.0000000000	        0.0560169941	      -19.8516926254	       11.8907826779	        0.9208914714	       -0.3151258244	        0.0000000000	       -0.0438593208	        0.0000000000	        0.0000000000	        0.0000000000	        0.0000000000	        0.0000000000	        0.0000000000	
        0.1204293615	     -125.8354215172	      739.3384669742	      -12.9856403511	        0.2892674533	        0.0000000000	        0.0563023177	      -17.3292621591	        9.3860710513	        0.9981168808	        0.0000000000	        0.0000000000	        0.0000000000	        0.0000000000	        0.0000000000	        0.0000000000	        0.0000000000	        0.0000000000	        0.0000000000	
        0.1338104017	     -114.2724042278	      710.4360100419	      -12.9023380843	        0.2951983177	        0.0000000000	        0.0564255688	      -13.7805096594	        6.9253144007	        0.8421624781	        0.0000000000	        0.0000000000	        0.0000000000	        0.0000000000	        0.0000000000	        0.0000000000	        0.0000000000	        0.0000000000	        0.0000000000	
        0.1471914419	     -102.4605704417	      681.9516600642	      -12.3805733257	        0.3003917384	        0.0000000000	        0.0565025470	      -10.6541633747	        5.1230805606	        0.5418745942	        0.0000000000	        0.0000000000	        0.0000000000	        0.0000000000	        0.0000000000	        0.0000000000	        0.0000000000	        0.0000000000	        0.0000000000	
        0.1605724820	      -92.6170439452	      657.6699072695	      -12.8606142309	        0.3051462728	        0.0000000000	        0.0564921033	       -8.2889725925	        3.8530994580	        0.3293316521	        0.0000000000	        0.0000000000	        0.0000000000	        0.0000000000	        0.0000000000	        0.0000000000	        0.0000000000	        0.0000000000	        0.0000000000	
        0.1739535222	      -83.3093808790	      637.5292825321	      -13.7889866950	        0.3095229045	        0.0000000000	        0.0564630141	       -6.4377142829	        2.9174509785	        0.1868120873	        0.0000000000	        0.0000000000	        0.0000000000	        0.0000000000	        0.0000000000	        0.0000000000	        0.0000000000	        0.0000000000	        0.0000000000	
        0.1873345624	      -74.7032398132	      619.7181393457	      -15.0137699334	        0.3136262236	        0.0000000000	        0.0564362038	       -4.9131299901	        2.1855049469	        0.0957950350	        0.0000000000	        0.0000000000	        0.0000000000	        0.0000000000	        0.0000000000	        0.0000000000	        0.0000000000	        0.0000000000	        0.0000000000	
        0.2007156025	      -67.0476143292	      604.0973512300	      -16.3202819239	        0.3174695848	        0.0000000000	        0.0564021134	       -3.6275348636	        1.5909445315	        0.0403530485	        0.0000000000	        0.0000000000	        0.0000000000	        0.0000000000	        0.0000000000	        0.0000000000	        0.0000000000	        0.0000000000	        0.0000000000	
        0.2140966427	      -60.2072769871	      590.4378102653	      -17.3286262965	        0.3210634641	        0.0000000000	        0.0563554737	       -2.6280620121	        1.1389708275	        0.0113282272	        0.0000000000	        0.0000000000	        0.0000000000	        0.0000000000	        0.0000000000	        0.0000000000	        0.0000000000	        0.0000000000	        0.0000000000	
        0.2274776829	      -54.0606976965	      578.3312104771	      -18.2271506964	        0.3243727027	        0.0000000000	        0.0562910057	       -1.9762102769	        0.8462039820	       -0.0010798503	        0.0000000000	        0.0000000000	        0.0000000000	        0.0000000000	        0.0000000000	        0.0000000000	        0.0000000000	        0.0000000000	        0.0000000000	
        0.2408587231	      -48.4183511715	      567.5808732759	      -19.0589194577	        0.3273465723	        0.0000000000	        0.0562119015	       -1.6006766634	        0.6764739407	       -0.0056968928	        0.0000000000	        0.0000000000	        0.0000000000	        0.0000000000	        0.0000000000	        0.0000000000	        0.0000000000	        0.0000000000	        0.0000000000	
        0.2542397632	      -43.0401621249	      557.8385802120	      -19.7718725632	        0.3299394212	        0.0000000000	        0.0561220129	       -1.4032783350	        0.5850979642	       -0.0073668915	        0.0000000000	        0.0000000000	        0.0000000000	        0.0000000000	        0.0000000000	        0.0000000000	        0.0000000000	        0.0000000000	        0.0000000000	
        0.2676208034	      -37.7020404903	      548.8961171517	      -20.3769882068	        0.3321318413	        0.0000000000	        0.0560278528	       -1.3154781335	        0.5413150276	       -0.0080467364	        0.0000000000	        0.0000000000	        0.0000000000	        0.0000000000	        0.0000000000	        0.0000000000	        0.0000000000	        0.0000000000	        0.0000000000	
        0.2810018436	      -32.2787299500	      540.6350592771	      -21.2447911197	        0.3339147324	        0.0000000000	        0.0559154866	       -1.2938774829	        0.5259605869	       -0.0080296433	        0.0000000000	        0.0000000000	        0.0000000000	        0.0000000000	        0.0000000000	        0.0000000000	        0.0000000000	        0.0000000000	        0.0000000000	
        0.2943828837	      -26.6984093792	      532.9905568960	      -21.9920583114	        0.3352791295	        0.0000000000	        0.0557884468	       -1.3053112172	        0.5249258420	       -0.0074221234	        0.0000000000	        0.0000000000	        0.0000000000	        0.0000000000	        0.0000000000	        0.0000000000	        0.0000000000	        0.0000000000	        0.0000000000	
        0.3077639239	      -20.8889711022	      526.1212969073	      -22.3979079976	        0.3362375345	        0.0000000000	        0.0556481662	       -1.3362765775	        0.5323919284	       -0.0062868830	        0.0000000000	        0.0000000000	        0.0000000000	        0.0000000000	        0.0000000000	        0.0000000000	        0.0000000000	        0.0000000000	        0.0000000000	
        0.3211449641	      -14.9172824551	      519.9704060467	      -22.2731745168	        0.3368066606	        0.0000000000	        0.0554871339	       -1.4024365890	        0.5539403911	       -0.0048411664	        0.0000000000	        0.0000000000	        0.0000000000	        0.0000000000	        0.0000000000	        0.0000000000	        0.0000000000	        0.0000000000	        0.0000000000	
        0.3345260042	       -8.8002352372	      515.1810417109	      -21.6989141845	        0.3370445480	        0.0000000000	        0.0552940973	       -1.5217810447	        0.5960110374	       -0.0039029509	        0.0000000000	        0.0000000000	        0.0000000000	        0.0000000000	        0.0000000000	        0.0000000000	        0.0000000000	        0.0000000000	        0.0000000000	
        0.3479070444	       -2.2255848261	      514.5420395236	      -21.0269671574	        0.3371469334	        0.0000000000	        0.0550497497	       -1.6620131194	        0.6460393620	       -0.0041730779	        0.0000000000	        0.0000000000	        0.0000000000	        0.0000000000	        0.0000000000	        0.0000000000	        0.0000000000	        0.0000000000	        0.0000000000	
